# Blender3D v248 OBJ File: 
# www.blender3d.org
v 3.990831 -0.048424 -5.964007
v 3.990831 -0.048423 2.000000
v -4.006683 -0.048423 2.000000
v -4.006682 -0.048424 -5.964007
v 3.990831 0.235399 -5.964006
v 3.990830 0.235400 2.000000
v -4.006683 0.235400 2.000000
v -4.006682 0.235399 -5.964007
v -4.381351 0.235400 2.000000
v -4.381350 0.235399 -5.964007
v -4.381350 -0.048424 -5.964007
v -4.381351 -0.048423 2.000000
v -4.195347 2.575675 2.000000
v -3.820679 2.575675 2.000000
v -4.195346 2.575675 -5.964007
v -3.820679 2.575675 -5.964007
v -3.279793 4.812587 1.999999
v -3.279793 4.812586 -5.964007
v -3.654460 4.812586 -5.964007
v -3.654461 4.812587 1.999999
v -3.152345 5.940808 1.999999
v -2.777677 5.940808 1.999999
v -3.152344 5.940808 -5.964007
v -2.777677 5.940808 -5.964007
v -3.654461 4.812587 2.543969
v -3.152345 5.940808 2.543969
v -2.777677 5.940808 2.543969
v -3.279793 4.812587 2.543969
v -4.195347 2.575675 2.543969
v -3.820679 2.575675 2.543969
v -4.381351 0.235399 2.543969
v -4.006683 0.235399 2.543969
v -4.381351 -0.048423 2.543970
v -4.006683 -0.048423 2.543970
v 3.990830 0.235399 2.543970
v 3.990831 -0.048423 2.543970
v -3.279793 4.812587 1.999999
v -3.279793 4.812587 2.543969
v -2.777677 5.940808 2.543969
v -2.777677 5.940808 1.999999
v -2.502276 6.290260 1.999999
v -2.502276 6.290260 2.543969
v -2.876944 6.290260 2.543969
v -2.876944 6.290260 1.999999
v -2.502276 6.290260 -5.964007
v -2.876944 6.290260 -5.964007
v -2.029447 5.384775 2.543969
v -1.754047 5.734227 2.543969
v -1.754047 5.734227 1.999999
v -2.029447 5.384775 1.999999
v -1.128697 4.378787 1.999999
v -1.128697 4.378787 2.543969
v -0.853296 4.728239 1.999999
v -0.853296 4.728239 2.543969
v -0.121594 3.711484 2.543969
v -0.396994 3.362032 2.543969
v -0.121594 3.711484 2.000000
v -0.396994 3.362032 2.000000
v 0.175400 1.750948 2.000000
v 0.175400 1.750948 2.543969
v 0.450801 2.100400 2.000000
v 0.450801 2.100400 2.543969
v 0.385743 0.591456 2.543969
v 0.661144 0.940908 2.543969
v 0.661144 0.940908 2.000000
v 0.385743 0.591456 2.000000
v 0.380042 0.424201 2.543969
v 0.380042 0.424201 2.000000
v 0.709486 0.424201 2.000000
v 0.709486 0.424201 2.543969
v 0.709486 0.264859 2.543969
v 0.709486 0.264859 2.000000
v 0.380042 0.264859 2.000000
v 0.380042 0.264859 2.543969
v -2.244044 6.658914 1.999999
v -2.244043 6.658913 -5.964007
v -1.869375 6.668423 -5.964007
v -1.869376 6.668424 1.999999
v -2.244044 6.658914 2.543969
v -1.869376 6.668424 2.543969
v -1.761787 6.715542 1.999999
v -1.761787 6.715542 2.543969
v -1.788721 6.866831 2.543969
v -1.788721 6.866831 1.999999
v -1.761786 6.715541 -5.964007
v -1.788720 6.866830 -5.964007
v -1.033893 7.001212 1.999999
v -1.033892 7.001211 -5.964007
v -1.006959 6.849922 -5.964007
v -1.006959 6.849923 1.999999
v -1.033893 7.001212 2.543969
v -1.006959 6.849923 2.543969
v 0.050074 6.748734 2.543969
v 0.050074 6.748734 1.999999
v 0.023140 6.900023 2.543969
v 0.023140 6.900023 1.999999
v 0.050074 6.748733 -5.964007
v 0.023140 6.900022 -5.964007
v 0.930581 6.673665 1.999999
v 0.930581 6.673665 -5.964007
v 0.957515 6.522376 -5.964007
v 0.957514 6.522376 1.999999
v 0.930581 6.673665 2.543969
v 0.957514 6.522376 2.543969
vn 0.984520 0.175272 0.000000
vn -0.242030 -0.970269 0.000000
vn 0.000000 0.000000 1.000000
vn 0.242030 0.970269 0.000000
vn 0.000000 0.000000 -1.000000
vn 0.095294 0.995449 -0.000000
vn -0.095294 -0.995449 0.000000
vn 0.175273 -0.984520 0.000000
vn -0.175273 0.984520 0.000000
vn -0.415379 0.909648 -0.000000
vn 0.401161 -0.916007 0.000000
vn -0.415379 0.909649 0.000000
vn 0.512922 -0.858435 0.000000
vn -0.503322 0.864099 0.000000
vn 0.000000 -1.000000 0.000000
vn -1.000000 0.000000 0.000000
vn 1.000000 0.000000 0.000000
vn 0.995652 0.093151 -0.000000
vn -0.999420 0.034065 -0.000000
vn -0.983941 -0.178496 0.000000
vn 0.983941 0.178496 0.000000
vn 0.942295 0.334784 0.000000
vn -0.942295 -0.334784 0.000000
vn -0.811671 -0.584115 0.000000
vn 0.811671 0.584115 0.000000
vn 0.745000 0.667065 0.000000
vn -0.745000 -0.667065 0.000000
vn -0.596466 -0.802638 0.000000
vn 0.596466 0.802638 0.000000
vn -0.785410 0.618976 -0.000000
vn 0.785410 -0.618976 0.000000
vn 0.913606 -0.406601 0.000000
vn 0.000000 0.000000 0.000000
vn 0.000000 -0.000002 1.000000
vn -0.000000 0.000001 1.000000
vn 1.000000 0.000003 0.000000
vn -0.000000 1.000000 0.000000
vn 0.996856 -0.079230 0.000000
vn -0.996856 0.079230 0.000000
vn 0.971989 -0.235027 0.000000
vn -0.971989 0.235027 0.000000
vn -0.913606 0.406601 0.000000
vn 0.000000 0.000002 -1.000000
usemtl Material
s off
f 102//1 99//1 103//1
f 102//1 103//1 104//1
f 102//1 101//1 100//1
f 102//1 100//1 99//1
f 93//2 94//2 102//2
f 93//2 102//2 104//2
f 95//3 93//3 103//3
f 93//3 104//3 103//3
f 96//4 95//4 103//4
f 96//4 103//4 99//4
f 94//2 97//2 101//2
f 94//2 101//2 102//2
f 97//5 98//5 100//5
f 97//5 100//5 101//5
f 98//4 96//4 99//4
f 98//4 99//4 100//4
f 88//6 87//6 96//6
f 88//6 96//6 98//6
f 89//5 88//5 98//5
f 89//5 98//5 97//5
f 90//7 89//7 97//7
f 90//7 97//7 94//7
f 87//6 91//6 95//6
f 87//6 95//6 96//6
f 91//3 92//3 95//3
f 92//3 93//3 95//3
f 92//7 90//7 94//7
f 92//7 94//7 93//7
f 82//8 81//8 90//8
f 82//8 90//8 92//8
f 83//3 82//3 92//3
f 83//3 92//3 91//3
f 84//9 83//9 91//9
f 84//9 91//9 87//9
f 81//8 85//8 89//8
f 81//8 89//8 90//8
f 85//5 86//5 88//5
f 85//5 88//5 89//5
f 86//9 84//9 87//9
f 86//9 87//9 88//9
f 76//10 75//10 84//10
f 76//10 84//10 86//10
f 77//5 76//5 86//5
f 77//5 86//5 85//5
f 78//11 77//11 85//11
f 78//11 85//11 81//11
f 75//12 79//12 83//12
f 75//10 83//10 84//10
f 79//3 80//3 83//3
f 80//3 82//3 83//3
f 80//11 78//11 81//11
f 80//11 81//11 82//11
f 42//13 41//13 78//13
f 42//13 78//13 80//13
f 43//3 42//3 79//3
f 42//3 80//3 79//3
f 44//14 43//14 79//14
f 44//14 79//14 75//14
f 41//13 45//13 77//13
f 41//13 77//13 78//13
f 45//5 46//5 76//5
f 45//5 76//5 77//5
f 46//14 44//14 75//14
f 46//14 75//14 76//14
f 74//15 73//15 72//15
f 74//15 72//15 71//15
f 67//16 68//16 73//16
f 67//16 73//16 74//16
f 68//5 69//5 72//5
f 68//5 72//5 73//5
f 69//17 70//17 71//17
f 69//17 71//17 72//17
f 70//3 67//3 74//3
f 70//3 74//3 71//3
f 64//3 63//3 70//3
f 63//3 67//3 70//3
f 65//18 64//18 70//18
f 65//18 70//18 69//18
f 66//5 65//5 69//5
f 66//5 69//5 68//5
f 63//19 66//19 68//19
f 63//19 68//19 67//19
f 60//20 59//20 66//20
f 60//20 66//20 63//20
f 59//5 61//5 65//5
f 59//5 65//5 66//5
f 61//21 62//21 64//21
f 61//21 64//21 65//21
f 62//3 60//3 64//3
f 60//3 63//3 64//3
f 55//3 56//3 62//3
f 56//3 60//3 62//3
f 57//22 55//22 62//22
f 57//22 62//22 61//22
f 58//5 57//5 61//5
f 58//5 61//5 59//5
f 56//23 58//23 59//23
f 56//23 59//23 60//23
f 52//24 51//24 58//24
f 52//24 58//24 56//24
f 51//5 53//5 57//5
f 51//5 57//5 58//5
f 53//25 54//25 55//25
f 53//25 55//25 57//25
f 54//3 52//3 55//3
f 52//3 56//3 55//3
f 48//3 47//3 54//3
f 47//3 52//3 54//3
f 49//26 48//26 54//26
f 49//26 54//26 53//26
f 50//5 49//5 53//5
f 50//5 53//5 51//5
f 47//27 50//27 51//27
f 47//27 51//27 52//27
f 27//28 22//28 50//28
f 27//28 50//28 47//28
f 22//5 41//5 50//5
f 41//5 49//5 50//5
f 41//29 42//29 48//29
f 41//29 48//29 49//29
f 42//3 27//3 47//3
f 42//3 47//3 48//3
f 23//30 21//30 44//30
f 23//30 44//30 46//30
f 24//5 23//5 46//5
f 24//5 46//5 45//5
f 22//31 24//31 41//31
f 24//31 45//31 41//31
f 21//30 26//30 43//30
f 21//30 43//30 44//30
f 26//3 27//3 43//3
f 27//3 42//3 43//3
f 37//32 40//32 39//32
f 37//32 39//32 38//32
f 17//33 22//33 40//33
f 17//33 40//33 37//33
f 22//33 27//33 39//33
f 22//33 39//33 40//33
f 27//33 28//33 38//33
f 27//33 38//33 39//33
f 28//33 17//33 37//33
f 28//33 37//33 38//33
f 36//34 35//34 34//34
f 35//35 32//35 34//35
f 34//35 32//35 31//35
f 34//35 31//35 33//35
f 31//3 32//3 29//3
f 32//3 30//3 29//3
f 29//3 30//3 25//3
f 30//3 28//3 25//3
f 25//3 28//3 26//3
f 28//3 27//3 26//3
f 3//15 2//15 36//15
f 3//15 36//15 34//15
f 2//36 6//36 36//36
f 6//36 35//36 36//36
f 6//37 7//37 32//37
f 6//37 32//37 35//37
f 9//16 12//16 31//16
f 12//16 33//16 31//16
f 12//15 3//15 34//15
f 12//15 34//15 33//15
f 7//38 14//38 30//38
f 7//38 30//38 32//38
f 13//39 9//39 31//39
f 13//39 31//39 29//39
f 14//40 17//40 28//40
f 14//40 28//40 30//40
f 20//41 13//41 29//41
f 20//41 29//41 25//41
f 21//42 20//42 25//42
f 21//42 25//42 26//42
f 17//32 18//32 24//32
f 17//32 24//32 22//32
f 18//5 19//5 23//5
f 18//5 23//5 24//5
f 19//42 20//42 21//42
f 19//42 21//42 23//42
f 15//41 13//41 20//41
f 15//41 20//41 19//41
f 16//5 15//5 19//5
f 16//5 19//5 18//5
f 14//40 16//40 18//40
f 14//40 18//40 17//40
f 7//38 8//38 16//38
f 7//38 16//38 14//38
f 8//5 10//5 15//5
f 8//5 15//5 16//5
f 10//39 9//39 13//39
f 10//39 13//39 15//39
f 12//16 9//16 10//16
f 12//16 10//16 11//16
f 4//15 3//15 12//15
f 4//15 12//15 11//15
f 8//43 4//43 11//43
f 8//43 11//43 10//43
f 5//43 1//43 4//43
f 5//43 4//43 8//43
f 1//17 5//17 2//17
f 5//36 6//36 2//36
f 5//37 8//37 7//37
f 5//37 7//37 6//37
f 1//15 2//15 3//15
f 1//15 3//15 4//15
