# Blender v2.64 (sub 0) OBJ File: ''
# www.blender.org
mtllib hex.mtl

v 0.475000 0.775224 -0.049999
v 0.908864 0.023750 -0.050000
v 0.041136 0.023750 -0.050000
v 0.041136 0.023750 0.050000
v 0.908864 0.023750 0.050000
v 0.475000 0.775224 0.050001
v 0.486875 0.802156 -0.024999
v 0.486875 0.802156 0.025001
v 0.938125 0.020568 0.025000
v 0.938125 0.020568 -0.025000
v 0.041136 -0.023750 -0.050000
v 0.908864 -0.023750 -0.050000
v 0.475000 -0.775224 -0.050000
v 0.041136 -0.023750 0.050000
v 0.475000 -0.775224 0.050000
v 0.908864 -0.023750 0.050000
v 0.938125 -0.020568 -0.025000
v 0.938125 -0.020568 0.025000
v 0.486875 -0.802156 0.025000
v 0.486875 -0.802156 -0.025000
v 0.000000 -0.047500 -0.050000
v 0.433863 -0.798974 -0.050000
v -0.433864 -0.798974 -0.050001
v 0.000000 -0.047500 0.050000
v -0.433864 -0.798974 0.049999
v 0.433863 -0.798974 0.050000
v 0.451250 -0.822724 -0.025000
v 0.451250 -0.822724 0.025000
v -0.451250 -0.822724 0.024999
v -0.451250 -0.822724 -0.025001
v -0.041136 -0.023750 -0.050000
v -0.475000 -0.775224 -0.050001
v -0.908864 -0.023750 -0.050000
v -0.041136 -0.023750 0.050000
v -0.908864 -0.023750 0.050000
v -0.475000 -0.775224 0.049999
v -0.486875 -0.802156 -0.025001
v -0.486875 -0.802156 0.024999
v -0.938125 -0.020568 0.025000
v -0.938125 -0.020568 -0.025000
v -0.041136 0.023750 -0.050000
v -0.908864 0.023750 -0.050000
v -0.475000 0.775224 -0.050000
v -0.041136 0.023750 0.050000
v -0.475000 0.775224 0.050000
v -0.908864 0.023750 0.050000
v -0.938125 0.020569 -0.025000
v -0.938125 0.020568 0.025000
v -0.486875 0.802156 0.025000
v -0.486875 0.802156 -0.025000
v 0.000000 0.047500 -0.050000
v -0.433864 0.798974 -0.050000
v 0.433864 0.798974 -0.049999
v 0.000000 0.047500 0.050000
v 0.433864 0.798974 0.050001
v -0.433864 0.798974 0.050000
v -0.451250 0.822724 -0.025000
v -0.451250 0.822724 0.025000
v 0.451250 0.822724 0.025001
v 0.451250 0.822724 -0.024999
vt 0.000000 0.000000
vt 1.000000 0.000000
vt 1.000000 1.000000
vt 0.000000 1.000000
vn 0.310923 0.277932 -0.908872
vn 0.396161 0.130284 -0.908872
vn 0.000000 0.000000 -1.000000
vn 0.000000 0.000000 1.000000
vn 0.396161 0.130284 0.908872
vn 0.310923 0.277932 0.908872
vn 0.643178 0.662252 -0.384320
vn 0.643178 0.662252 0.384320
vn 0.895108 0.225867 0.384320
vn 0.895108 0.225867 -0.384320
vn 0.396161 -0.130284 -0.908872
vn 0.310923 -0.277932 -0.908872
vn 0.310923 -0.277932 0.908872
vn 0.396161 -0.130284 0.908872
vn 0.895108 -0.225867 -0.384320
vn 0.895108 -0.225867 0.384320
vn 0.643178 -0.662252 0.384320
vn 0.643178 -0.662252 -0.384320
vn 0.085238 -0.408246 -0.908872
vn -0.085238 -0.408246 -0.908872
vn -0.085238 -0.408246 0.908872
vn 0.085238 -0.408246 0.908872
vn 0.251930 -0.888119 -0.384320
vn 0.251930 -0.888119 0.384320
vn -0.251930 -0.888119 0.384320
vn -0.251930 -0.888119 -0.384320
vn -0.310923 -0.277932 -0.908872
vn -0.396161 -0.130284 -0.908872
vn -0.396161 -0.130284 0.908872
vn -0.310923 -0.277932 0.908872
vn -0.643178 -0.662252 -0.384320
vn -0.643178 -0.662252 0.384320
vn -0.895108 -0.225867 0.384320
vn -0.895108 -0.225867 -0.384320
vn -0.396161 0.130284 -0.908872
vn -0.310923 0.277932 -0.908872
vn -0.310923 0.277932 0.908872
vn -0.396161 0.130284 0.908872
vn -0.895108 0.225867 -0.384320
vn -0.895108 0.225867 0.384320
vn -0.643178 0.662252 0.384320
vn -0.643178 0.662252 -0.384320
vn -0.085238 0.408246 -0.908872
vn 0.085238 0.408246 -0.908872
vn 0.085238 0.408246 0.908872
vn -0.085238 0.408246 0.908872
vn -0.251930 0.888119 -0.384320
vn -0.251930 0.888119 0.384320
vn 0.251930 0.888119 0.384320
vn 0.251930 0.888119 -0.384320

g Cylinder_Cylinder
usemtl Default
s 1
f 1/1/1 2/2/2 3/3/3
f 4/1/4 5/2/5 6/3/6
f 7/1/7 8/2/8 9/3/9
f 7/1/7 9/3/9 10/4/10
f 11/1/3 12/2/11 13/3/12
f 14/1/4 15/2/13 16/3/14
f 17/1/15 18/2/16 19/3/17
f 17/1/15 19/3/17 20/4/18
f 21/1/3 22/2/19 23/3/20
f 24/1/4 25/2/21 26/3/22
f 27/1/23 28/2/24 29/3/25
f 27/1/23 29/3/25 30/4/26
f 31/1/3 32/2/27 33/3/28
f 34/1/4 35/2/29 36/3/30
f 37/1/31 38/2/32 39/3/33
f 37/1/31 39/3/33 40/4/34
f 41/1/3 42/2/35 43/3/36
f 44/1/4 45/2/37 46/3/38
f 47/1/39 48/2/40 49/3/41
f 47/1/39 49/3/41 50/4/42
f 51/1/3 52/2/43 53/3/44
f 54/1/4 55/2/45 56/3/46
f 57/1/47 58/2/48 59/3/49
f 57/1/47 59/3/49 60/4/50
f 3/1/3 2/2/2 12/3/11
f 3/1/3 12/3/11 11/4/3
f 4/1/4 6/2/6 55/3/45
f 4/1/4 55/3/45 54/4/4
f 11/1/3 13/2/12 22/3/19
f 11/1/3 22/3/19 21/4/3
f 5/1/5 4/2/4 14/3/4
f 5/1/5 14/3/4 16/4/14
f 6/1/6 5/2/5 9/3/9
f 6/1/6 9/3/9 8/4/8
f 17/1/15 20/2/18 13/3/12
f 17/1/15 13/3/12 12/4/11
f 20/1/18 19/2/17 28/3/24
f 20/1/18 28/3/24 27/4/23
f 21/1/3 23/2/20 32/3/27
f 21/1/3 32/3/27 31/4/3
f 15/1/13 14/2/4 24/3/4
f 15/1/13 24/3/4 26/4/22
f 16/1/14 15/2/13 19/3/17
f 16/1/14 19/3/17 18/4/16
f 56/1/46 58/2/48 49/3/41
f 56/1/46 49/3/41 45/4/37
f 27/1/23 30/2/26 23/3/20
f 27/1/23 23/3/20 22/4/19
f 30/1/26 29/2/25 38/3/32
f 30/1/26 38/3/32 37/4/31
f 31/1/3 33/2/28 42/3/35
f 31/1/3 42/3/35 41/4/3
f 25/1/21 24/2/4 34/3/4
f 25/1/21 34/3/4 36/4/30
f 46/1/38 48/2/40 39/3/33
f 46/1/38 39/3/33 35/4/29
f 36/1/30 38/2/32 29/3/25
f 36/1/30 29/3/25 25/4/21
f 40/1/34 47/2/39 42/3/35
f 40/1/34 42/3/35 33/4/28
f 26/1/22 25/2/21 29/3/25
f 26/1/22 29/3/25 28/4/24
f 30/1/26 37/2/31 32/3/27
f 30/1/26 32/3/27 23/4/20
f 37/1/31 40/2/34 33/3/28
f 37/1/31 33/3/28 32/4/27
f 40/1/34 39/2/33 48/3/40
f 40/1/34 48/3/40 47/4/39
f 50/1/42 57/2/47 52/3/43
f 50/1/42 52/3/43 43/4/36
f 41/1/3 43/2/36 52/3/43
f 41/1/3 52/3/43 51/4/3
f 35/1/29 34/2/4 44/3/4
f 35/1/29 44/3/4 46/4/38
f 12/1/11 2/2/2 10/3/10
f 12/1/11 10/3/10 17/4/15
f 41/1/3 51/2/3 3/3/3
f 41/1/3 3/2/3 11/3/3
f 31/1/3 41/2/3 11/3/3
f 31/1/3 11/2/3 21/3/3
f 16/1/14 18/2/16 9/3/9
f 16/1/14 9/3/9 5/4/5
f 36/1/30 35/2/29 39/3/33
f 36/1/30 39/3/33 38/4/32
f 20/1/18 27/2/23 22/3/19
f 20/1/18 22/3/19 13/4/12
f 47/1/39 50/2/42 43/3/36
f 47/1/39 43/3/36 42/4/35
f 50/1/42 49/2/41 58/3/48
f 50/1/42 58/3/48 57/4/47
f 26/1/22 28/2/24 19/3/17
f 26/1/22 19/3/17 15/4/13
f 56/1/46 55/2/45 59/3/49
f 56/1/46 59/3/49 58/4/48
f 45/1/37 44/2/4 54/3/4
f 45/1/37 54/3/4 56/4/46
f 2/1/2 1/2/1 7/3/7
f 2/1/2 7/3/7 10/4/10
f 44/1/4 4/2/4 54/3/4
f 44/1/4 14/2/4 4/3/4
f 44/1/4 34/2/4 14/3/4
f 34/1/4 24/2/4 14/3/4
f 8/1/8 7/2/7 60/3/50
f 8/1/8 60/3/50 59/4/49
f 46/1/38 45/2/37 49/3/41
f 46/1/38 49/3/41 48/4/40
f 10/1/10 9/2/9 18/3/16
f 10/1/10 18/3/16 17/4/15
f 57/1/47 60/2/50 53/3/44
f 57/1/47 53/3/44 52/4/43
f 8/1/8 59/2/49 55/3/45
f 8/1/8 55/3/45 6/4/6
f 1/1/1 53/2/44 60/3/50
f 1/1/1 60/3/50 7/4/7
f 1/1/1 3/2/3 51/3/3
f 1/1/1 51/3/3 53/4/44
